<?xml version="1.0" encoding="iso-8859-1"?>
<!-- Generator: Adobe Illustrator 18.0.0, SVG Export Plug-In . SVG Version: 6.00 Build 0)  -->
<!DOCTYPE svg PUBLIC "-//W3C//DTD SVG 1.1//EN" "http://www.w3.org/Graphics/SVG/1.1/DTD/svg11.dtd">
<svg xmlns="http://www.w3.org/2000/svg" xmlns:xlink="http://www.w3.org/1999/xlink" version="1.1" id="Capa_1" x="0px" y="0px" viewBox="0 0 275.109 275.109" style="enable-background:new 0 0 275.109 275.109;" xml:space="preserve" width="24px" height="24px">
<g>
	<path d="M192.909,11.418C177.998,4.055,158.339,0,137.555,0S97.112,4.055,82.201,11.418c-16.593,8.193-25.732,19.706-25.732,32.418   v179.82c0,28.853,35.617,51.453,81.085,51.453c45.469,0,81.087-22.601,81.087-51.453V43.836   C218.641,31.124,209.502,19.611,192.909,11.418z M203.641,223.656c0,19.76-30.264,36.453-66.087,36.453   c-35.822,0-66.085-16.693-66.085-36.453V43.836C71.469,30.197,98.609,15,137.555,15s66.086,15.197,66.086,28.836V223.656z" fill="#111111"/>
	<path d="M174.381,30.645c-3.367,0-6.216,2.219-7.164,5.273c-2.989,1.875-13.491,4.791-29.662,4.791   c-16.172,0-26.675-2.916-29.664-4.791c-0.948-3.055-3.797-5.273-7.164-5.273c-4.142,0-7.5,3.357-7.5,7.5   c0,16.298,33.929,17.564,44.328,17.564c10.398,0,44.326-1.267,44.326-17.564C181.881,34.002,178.523,30.645,174.381,30.645z" fill="#111111"/>
</g>
<g>
</g>
<g>
</g>
<g>
</g>
<g>
</g>
<g>
</g>
<g>
</g>
<g>
</g>
<g>
</g>
<g>
</g>
<g>
</g>
<g>
</g>
<g>
</g>
<g>
</g>
<g>
</g>
<g>
</g>
</svg>
