<?xml version="1.0" encoding="iso-8859-1"?>
<!-- Generator: Adobe Illustrator 16.0.0, SVG Export Plug-In . SVG Version: 6.00 Build 0)  -->
<!DOCTYPE svg PUBLIC "-//W3C//DTD SVG 1.1//EN" "http://www.w3.org/Graphics/SVG/1.1/DTD/svg11.dtd">
<svg xmlns="http://www.w3.org/2000/svg" xmlns:xlink="http://www.w3.org/1999/xlink" version="1.1" id="Capa_1" x="0px" y="0px" width="24px" height="24px" viewBox="0 0 560.044 560.044" style="enable-background:new 0 0 560.044 560.044;" xml:space="preserve">
<g>
	<g>
		<g>
			<path d="M144.628,238.289c-25.22,5.263-46.894,20.037-61,41.61c-14.127,21.582-19.005,47.356-13.725,72.595     c1.846,8.826,9.612,14.884,18.295,14.884c1.258,0,2.558-0.127,3.835-0.392c10.126-2.122,16.614-12.034,14.492-22.148     c-3.215-15.443-0.237-31.229,8.407-44.443c8.642-13.204,21.91-22.25,37.334-25.464c10.125-2.111,16.612-12.026,14.492-22.14     C164.658,242.675,154.696,236.141,144.628,238.289z" fill="#FFFFFF"/>
			<path d="M139.547,214c10.104-2.12,16.593-12.034,14.472-22.148c-2.118-10.115-12.079-16.583-22.13-14.492     C46.238,195.259-8.879,279.526,9.012,365.194c1.844,8.827,9.613,14.884,18.295,14.884c1.259,0,2.558-0.126,3.835-0.395     c10.125-2.118,16.612-12.032,14.49-22.147C31.966,292.071,74.087,227.681,139.547,214z" fill="#FFFFFF"/>
			<g>
				<path d="M541.787,58.149c-4.493-3.217-9.558-4.882-14.691-5.365l2.448-3.389c9.648-13.543,6.522-32.354-7.017-42.032      c-13.542-9.667-32.349-6.534-42.014,7l-2.43,3.398c-2.119-4.688-5.355-8.937-9.831-12.142      c-13.543-9.678-32.347-6.542-42.032,7.007l-16.536,23.156c-1.134-5.273-4.094-10.151-8.827-13.534      c-10.159-7.256-24.268-4.896-31.503,5.253c0,0-56.013,77.787-74.306,103.993c-43.676,62.563-91.19,158.779-91.19,158.779      c-17.48-10.524-40.151-5.406-51.412,11.606l-19.182,28.979c-12.792,19.582-7.291,45.94,12.283,58.771l0.912,0.594      L61.322,538.468c-2.561,4.458-2.561,9.941,0.018,14.394c2.577,4.44,7.328,7.183,12.462,7.183h142.415      c4.186,0,8.168-1.827,10.91-4.998l61.714-71.635l11.019,7.208c6.87,4.523,14.932,6.936,23.246,6.936      c2.904,0,5.828-0.302,8.661-0.896c11.165-2.34,20.704-8.863,26.897-18.366l19.179-28.896      c11.344-17.089,7.121-40.092-9.556-52.031c-1.76-1.259-2.935-2.104-3.28-2.356c0,0,144.713-150.745,156.629-166.133      c5.045-6.514,5.738-15.779,1.663-23.574c-5.721-11.075-19.37-15.379-30.466-9.612l-12.938,6.724      c-2.486,1.3-4.861,2.824-7.218,4.331l76.114-106.576C558.455,86.637,555.331,67.806,541.787,58.149z M351.915,437.18      l-16.153,25.209c-2.141,3.327-5.521,5.667-9.375,6.489c-3.874,0.832-7.913,0.073-11.221-2.083L161.312,366.192      c-3.309-2.165-5.61-5.563-6.416-9.439c-0.788-3.872,0-7.902,2.193-11.191l16.685-24.98c4.513-6.761,13.633-8.625,20.431-4.174      l153.361,100.372C354.365,421.226,356.321,430.328,351.915,437.18z" fill="#FFFFFF"/>
			</g>
		</g>
	</g>
</g>
<g>
</g>
<g>
</g>
<g>
</g>
<g>
</g>
<g>
</g>
<g>
</g>
<g>
</g>
<g>
</g>
<g>
</g>
<g>
</g>
<g>
</g>
<g>
</g>
<g>
</g>
<g>
</g>
<g>
</g>
</svg>
